<?xml version="1.0" encoding="utf-8"?>
<!-- Generator: Adobe Illustrator 27.3.1, SVG Export Plug-In . SVG Version: 6.00 Build 0)  -->
<svg version="1.1" id="Layer_1" xmlns="http://www.w3.org/2000/svg" xmlns:xlink="http://www.w3.org/1999/xlink" x="0px" y="0px"
	 viewBox="0 0 220.63 57.84" style="enable-background:new 0 0 220.63 57.84;" xml:space="preserve">
<style type="text/css">
	.st0{fill:url(#XMLID_00000119118779127572880060000006470855306627051905_);}
	.st1{fill:url(#XMLID_00000066500336620912385360000008952761071552753565_);}
	.st2{fill:#0D2244;}
	.st3{fill:#01668F;}
	.st4{fill:url(#XMLID_00000047025596685599724350000012763920115965175227_);}
	.st5{fill:url(#XMLID_00000054239793973395714210000002873328072722902405_);}
	.st6{fill:url(#XMLID_00000128479819969818015380000008014198280128964006_);}
	.st7{fill:url(#SVGID_1_);}
	.st8{fill:url(#SVGID_00000158734760314678022210000017058522144570637246_);}
	.st9{fill:#00FF3C;}
	.st10{fill:#3B73C4;}
</style>
<g>
	<g>
		
			<linearGradient id="XMLID_00000086687643735307521420000013883733134221764512_" gradientUnits="userSpaceOnUse" x1="23.2649" y1="5.9806" x2="43.074" y2="5.9806">
			<stop  offset="0" style="stop-color:#01668F"/>
			<stop  offset="0.3252" style="stop-color:#064C72"/>
			<stop  offset="0.7616" style="stop-color:#0B2D51"/>
			<stop  offset="1" style="stop-color:#0D2244"/>
		</linearGradient>
		
			<path id="XMLID_00000004523247874718626030000010337963200418253998_" style="fill:url(#XMLID_00000086687643735307521420000013883733134221764512_);" d="
			M35.79,2.25c-0.46-0.18-0.95-0.31-1.45-0.37c-3.96-0.52-7.78,2.9-9.24,7.91l-1.83-0.22c1.65-6.01,6.37-10.14,11.3-9.5
			c4.89,0.64,8.38,5.74,8.5,11.89l-1.84-0.22C41.08,7.25,38.94,3.48,35.79,2.25z"/>
		
			<linearGradient id="XMLID_00000117675593525265432160000013298166010208009380_" gradientUnits="userSpaceOnUse" x1="43.3712" y1="10.1215" x2="44.5736" y2="62.7994">
			<stop  offset="0" style="stop-color:#01668F"/>
			<stop  offset="0.3252" style="stop-color:#064C72"/>
			<stop  offset="0.7616" style="stop-color:#0B2D51"/>
			<stop  offset="1" style="stop-color:#0D2244"/>
		</linearGradient>
		
			<path id="XMLID_00000181765948251585788320000004292863047782214812_" style="fill:url(#XMLID_00000117675593525265432160000013298166010208009380_);" d="
			M37.47,0.45c0,0,6.11,2.91,6.79,11.85l2.43,0.32c0.4,0.05,0.69,0.38,0.7,0.78l1.11,40.87c0,0-0.25,1.3-1.77,1.1
			c0,0,1.19,0.37,2.2-0.02c0.71-0.28,1.12-1.03,1.1-1.79l-1.17-41.07c-0.02-0.54-0.42-0.99-0.96-1.06l-2.2-0.29
			C45.71,11.14,43.68,2.65,37.47,0.45z"/>
		<path class="st2" d="M8.99,36.47C8.9,36.63,8.84,36.81,8.81,37C8.8,37.07,8.8,37.14,8.8,37.2C8.79,37.12,8.78,36.8,8.99,36.47z"/>
		<g id="XMLID_00000008830535819732727750000014467432274846277043_">
			<path class="st3" d="M42.14,11.84c-0.17-6.21-3.74-11.16-8.5-11.78c-0.14-0.02-0.27-0.02-0.41-0.03l-0.15-0.01
				C33.27,0.01,33.46,0,33.65,0c0.33,0,0.63,0.02,0.92,0.06c4.8,0.63,8.38,5.63,8.51,11.89v0L42.14,11.84z"/>
			<path id="XMLID_00000075841145227434524620000016401749631641655442_" class="st3" d="M33.64,0.06
				c-0.19-0.02-0.37-0.03-0.56-0.04c0.49-0.03,0.98-0.03,1.48,0.04c4.89,0.64,8.38,5.74,8.51,11.89l-0.93-0.11
				C41.98,5.74,38.51,0.69,33.64,0.06z"/>
			<path class="st3" d="M45.77,55.21c-0.06,0-0.12,0-0.18-0.01l-0.36-0.05c0.58-0.18,0.97-0.72,0.96-1.32L45.51,14.4
				c-0.01-0.66-0.52-1.23-1.18-1.31L32.16,11.5l-11.8-1.54c0.02-0.01,0.03-0.02,0.04-0.02c0.06-0.02,0.13-0.03,0.19-0.03
				c0.05-0.01,0.11-0.01,0.16-0.01c0.05,0,0.1,0,0.15,0.01l12.18,1.59l12.18,1.58c0.23,0.03,0.43,0.11,0.59,0.23
				c0.06,0.04,0.11,0.08,0.16,0.13l0.08,0.08c0.08,0.09,0.15,0.19,0.2,0.29c0.04,0.07,0.06,0.14,0.09,0.22
				c0.03,0.11,0.05,0.23,0.06,0.36l0.69,39.43c0.01,0.36-0.13,0.71-0.39,0.97C46.48,55.06,46.14,55.21,45.77,55.21z"/>
			<path class="st3" d="M47.12,53.83c0.01,0.82-0.71,1.47-1.53,1.36l-0.36-0.05c0.56-0.17,0.98-0.69,0.96-1.31L45.51,14.4
				c-0.01-0.67-0.52-1.23-1.18-1.32L32.16,11.5l-11.8-1.54h-0.01c0.02,0,0.04-0.01,0.06-0.01c0.06-0.02,0.13-0.03,0.19-0.03
				c0.1-0.02,0.2-0.02,0.31,0l12.18,1.59l12.18,1.58c0.22,0.03,0.42,0.11,0.59,0.23c0.06,0.04,0.11,0.08,0.16,0.13
				c0.03,0.03,0.06,0.06,0.08,0.08c0.08,0.09,0.15,0.19,0.2,0.29c0.04,0.07,0.06,0.14,0.09,0.22c0.04,0.12,0.05,0.23,0.06,0.36
				L47.12,53.83z"/>
		</g>
		<g>
			
				<linearGradient id="XMLID_00000082328880147369327880000001934381241075850661_" gradientUnits="userSpaceOnUse" x1="14.7569" y1="-16.0025" x2="4.7718" y2="55.7826">
				<stop  offset="0" style="stop-color:#0483AA"/>
				<stop  offset="0.1393" style="stop-color:#067298"/>
				<stop  offset="0.5271" style="stop-color:#0A476B"/>
				<stop  offset="0.8268" style="stop-color:#0C2C4E"/>
				<stop  offset="1" style="stop-color:#0D2244"/>
			</linearGradient>
			
				<path id="XMLID_00000119086686917800123270000006079505901493942677_" style="fill:url(#XMLID_00000082328880147369327880000001934381241075850661_);" d="
				M8.47,18.01c-0.11,0.84,0.48,1.61,1.32,1.72c0.84,0.11,1.61-0.48,1.72-1.32c0.11-0.84-0.48-1.61-1.32-1.72
				C9.36,16.58,8.59,17.17,8.47,18.01z"/>
			
				<linearGradient id="XMLID_00000070099013481928526870000006346107780311066812_" gradientUnits="userSpaceOnUse" x1="9.7108" y1="-16.7044" x2="-0.2743" y2="55.0807">
				<stop  offset="0" style="stop-color:#0483AA"/>
				<stop  offset="0.1393" style="stop-color:#067298"/>
				<stop  offset="0.5271" style="stop-color:#0A476B"/>
				<stop  offset="0.8268" style="stop-color:#0C2C4E"/>
				<stop  offset="1" style="stop-color:#0D2244"/>
			</linearGradient>
			
				<path id="XMLID_00000183931246947229730010000006721279428177164731_" style="fill:url(#XMLID_00000070099013481928526870000006346107780311066812_);" d="
				M0.01,41.86c-0.11,0.84,0.48,1.61,1.32,1.72c0.84,0.11,1.61-0.48,1.72-1.32c0.11-0.84-0.48-1.61-1.32-1.72S0.12,41.02,0.01,41.86
				z"/>
			
				<linearGradient id="XMLID_00000016046854514824616420000004351021124037845939_" gradientUnits="userSpaceOnUse" x1="12.0466" y1="-16.3795" x2="2.0614" y2="55.4056">
				<stop  offset="0" style="stop-color:#0483AA"/>
				<stop  offset="0.1393" style="stop-color:#067298"/>
				<stop  offset="0.5271" style="stop-color:#0A476B"/>
				<stop  offset="0.8268" style="stop-color:#0C2C4E"/>
				<stop  offset="1" style="stop-color:#0D2244"/>
			</linearGradient>
			
				<path id="XMLID_00000052104475133404104330000008516243159557736375_" style="fill:url(#XMLID_00000016046854514824616420000004351021124037845939_);" d="
				M4.11,29.51C4,30.36,4.59,31.13,5.43,31.24c0.84,0.11,1.61-0.48,1.72-1.32c0.11-0.84-0.48-1.61-1.32-1.72
				C4.99,28.08,4.22,28.67,4.11,29.51z"/>
			<linearGradient id="SVGID_1_" gradientUnits="userSpaceOnUse" x1="16.966" y1="-15.6952" x2="6.9809" y2="56.0899">
				<stop  offset="0" style="stop-color:#0483AA"/>
				<stop  offset="0.1393" style="stop-color:#067298"/>
				<stop  offset="0.5271" style="stop-color:#0A476B"/>
				<stop  offset="0.8268" style="stop-color:#0C2C4E"/>
				<stop  offset="1" style="stop-color:#0D2244"/>
			</linearGradient>
			<path class="st7" d="M17.77,23.9l-1.95-0.26l-9.26-1.22c-0.84-0.11-1.61,0.48-1.72,1.32c-0.11,0.84,0.48,1.61,1.32,1.73
				l8.82,1.16c0.9,0.13,1.8,0.26,2.69,0.39c-0.12-0.86-0.1-1.82,0.06-2.85C17.74,24.07,17.75,23.99,17.77,23.9z"/>
			
				<linearGradient id="SVGID_00000095321060652191456140000012307813563793470867_" gradientUnits="userSpaceOnUse" x1="33.9242" y1="-13.3364" x2="23.9391" y2="58.4487">
				<stop  offset="0" style="stop-color:#0483AA"/>
				<stop  offset="0.1393" style="stop-color:#067298"/>
				<stop  offset="0.5271" style="stop-color:#0A476B"/>
				<stop  offset="0.8268" style="stop-color:#0C2C4E"/>
				<stop  offset="1" style="stop-color:#0D2244"/>
			</linearGradient>
			<path style="fill:url(#SVGID_00000095321060652191456140000012307813563793470867_);" d="M23.79,41.65l0.43,0.07
				c0.01-0.75,0.03-1.34,0.08-1.77C24.18,40.43,24.01,40.99,23.79,41.65z M27.08,40.28l-0.27-0.04l-0.21,1.28l0.27,0.04
				c0.22,0.04,0.35-0.06,0.39-0.29l0.1-0.6C27.39,40.44,27.3,40.31,27.08,40.28z M27.08,40.28l-0.27-0.04l-0.21,1.28l0.27,0.04
				c0.22,0.04,0.35-0.06,0.39-0.29l0.1-0.6C27.39,40.44,27.3,40.31,27.08,40.28z M23.79,41.65l0.43,0.07
				c0.01-0.75,0.03-1.34,0.08-1.77C24.18,40.43,24.01,40.99,23.79,41.65z M23.79,41.65l0.43,0.07c0.01-0.75,0.03-1.34,0.08-1.77
				C24.18,40.43,24.01,40.99,23.79,41.65z M27.08,40.28l-0.27-0.04l-0.21,1.28l0.27,0.04c0.22,0.04,0.35-0.06,0.39-0.29l0.1-0.6
				C27.39,40.44,27.3,40.31,27.08,40.28z M27.08,40.28l-0.27-0.04l-0.21,1.28l0.27,0.04c0.22,0.04,0.35-0.06,0.39-0.29l0.1-0.6
				C27.39,40.44,27.3,40.31,27.08,40.28z M23.79,41.65l0.43,0.07c0.01-0.75,0.03-1.34,0.08-1.77
				C24.18,40.43,24.01,40.99,23.79,41.65z M45.51,14.4c-0.01-0.67-0.52-1.23-1.18-1.32L32.16,11.5l-11.8-1.54
				c-0.44,0.13-0.79,0.47-0.92,0.93l-1.92,6.77l-3.44-0.45c-0.87-0.12-1.66,0.52-1.73,1.4c-0.07,0.83,0.59,1.54,1.41,1.65l2.91,0.38
				v0.01l1.77,0.23c0.12,0.02,0.22,0.04,0.33,0.08c0.1-0.18,0.21-0.35,0.33-0.52c0.67-0.96,1.46-1.71,2.34-2.25
				c0.88-0.53,1.81-0.88,2.76-1.03c0.15-0.02,0.29-0.04,0.44-0.06c0.24-0.03,0.48-0.05,0.71-0.06c0.12,0,0.24-0.01,0.36-0.01
				c0.18,0,0.36,0.01,0.54,0.02c0.1,0,0.19,0.01,0.28,0.02c0,0,0,0,0.01,0c0.07,0.01,0.15,0.02,0.22,0.03
				c5.02,0.77,10.04,1.54,15.06,2.31v0.4c0,1.51,0,3.01-0.01,4.51v0.4l-15.78-2.42c-0.88-0.13-1.61,0.04-2.19,0.52
				c-0.58,0.48-0.94,1.17-1.08,2.09c-0.02,0.17-0.04,0.33-0.04,0.48c0,0.01,0,0.02,0,0.03c0.03,0.53,0.18,1,0.45,1.4
				c0.41,0.61,1.06,0.98,1.94,1.12l0.06,0.01l10.6,1.63l0.04,0c0.5,0.09,1.02,0.24,1.55,0.46c0.54,0.21,1.06,0.5,1.57,0.86
				c0.51,0.36,0.99,0.78,1.42,1.27c0.44,0.49,0.8,1.06,1.1,1.69s0.5,1.35,0.61,2.14c0.05,0.38,0.08,0.77,0.07,1.19v0.04
				c0,0.44-0.04,0.9-0.12,1.38c-0.14,0.95-0.39,1.78-0.74,2.51c-0.35,0.72-0.76,1.34-1.23,1.87c-0.47,0.52-0.99,0.94-1.56,1.27
				c-0.58,0.33-1.15,0.58-1.74,0.75c-0.59,0.18-1.17,0.28-1.75,0.32c-0.58,0.04-1.13,0.02-1.63-0.06l-1.96-0.34l-0.7-0.11l0.79-4.76
				l2.6,0.4c0.02,0,0.05,0.01,0.07,0.01c0.08,0.01,0.15,0.02,0.23,0.03c0.1,0.01,0.19,0.01,0.28,0.01c0.07,0,0.13,0,0.2-0.01
				c0.06,0,0.13-0.01,0.19-0.02c0.05-0.01,0.09-0.02,0.14-0.02c0.41-0.07,0.77-0.23,1.09-0.49c0.58-0.46,0.93-1.15,1.07-2.07
				c0.02-0.13,0.04-0.27,0.04-0.39c0-0.16-0.02-0.31-0.05-0.46c-0.08-0.39-0.21-0.74-0.41-1.05c-0.2-0.31-0.47-0.56-0.8-0.77
				c-0.33-0.2-0.71-0.33-1.13-0.4L24.35,33.2c-0.75-0.12-1.54-0.38-2.36-0.79c-0.82-0.41-1.56-0.98-2.21-1.71
				c-0.08-0.1-0.17-0.19-0.25-0.29l-0.25-0.03l-0.3-0.04l-8.96-1.18c-0.84-0.11-1.61,0.48-1.72,1.32c-0.11,0.84,0.48,1.61,1.32,1.73
				l8.82,1.16l0.5,0.07c0.89,0.13,1.52,0.95,1.4,1.85c0,0.01,0,0.02,0,0.03c-0.12,0.9-0.94,1.54-1.85,1.42l-7.95-1.05
				c-0.13-0.02-0.25-0.02-0.37,0c-0.51,0.13-0.83,0.35-1.03,0.58c-0.04,0.04-0.07,0.08-0.1,0.13C9.02,36.41,9,36.44,8.99,36.47
				C8.9,36.63,8.84,36.81,8.81,37c-0.01,0.07-0.01,0.13-0.01,0.2v0.02c0,0,0,0,0,0c0.01,0.75,0.57,1.4,1.33,1.5l1.36,0.18l2.36,0.31
				c0.87,0.12,1.47,0.93,1.31,1.8c-0.15,0.82-0.97,1.34-1.8,1.23l-2.72-0.36L6.23,41.3c-0.84-0.11-1.61,0.48-1.72,1.32
				c-0.11,0.84,0.48,1.61,1.32,1.72l3.98,0.53l-1.12,3.96c-0.22,0.79,0.31,1.6,1.13,1.71l6.5,0.84c0-0.01,0-0.03,0-0.04
				c0.38-2.28,2.16-3.95,4.21-3.95c0.21,0,0.41,0.02,0.61,0.05c2.16,0.36,3.61,2.57,3.32,4.99l3.24,0.42l5.23,0.68
				c0.01-0.07,0.02-0.15,0.03-0.22c0.38-2.28,2.16-3.95,4.21-3.95c0.21,0,0.41,0.02,0.61,0.05c2.21,0.37,3.68,2.68,3.3,5.17
				l4.14,0.54c0.56-0.17,0.98-0.69,0.96-1.31L45.51,14.4z M25.29,13.2c-0.07,0.53-0.56,0.9-1.09,0.83c-0.53-0.07-0.9-0.56-0.83-1.08
				c0.07-0.53,0.56-0.91,1.08-0.84C24.99,12.18,25.37,12.67,25.29,13.2z M21.22,43.22l0.28-1.67l0.17-0.91
				c-0.12,0.26-0.26,0.55-0.42,0.86l-0.23,0.45l-0.69-0.12l-0.06-0.49l-0.12-0.97c-0.03,0.25-0.08,0.56-0.14,0.92l-0.28,1.66
				l-0.79-0.13l0.79-4.7l0.8,0.13l0.22,1.64l0.11,0.96c0.13-0.27,0.27-0.57,0.42-0.88l0.74-1.47l0.8,0.13l-0.79,4.7L21.22,43.22z
				 M24.2,43.71l0.02-1.11l-0.69-0.12l-0.35,1.06l-0.82-0.14l1.58-4.57l1.07,0.18l0.01,4.83L24.2,43.71z M28.18,40.8l-0.1,0.61
				c-0.08,0.48-0.29,0.79-0.63,0.95l0.23,1.94l-0.91-0.15l-0.15-1.73l-0.17-0.03l-0.28,1.65l-0.83-0.14l0.79-4.7l1.09,0.18
				c0.38,0.06,0.65,0.22,0.81,0.48C28.19,40.12,28.24,40.43,28.18,40.8z M29.99,40.76l-0.64,3.82l-0.84-0.14l0.64-3.82l-0.69-0.12
				l0.15-0.88L30.83,40l-0.15,0.88L29.99,40.76z M42.87,15.49c-0.07,0.53-0.56,0.9-1.09,0.84c-0.53-0.07-0.9-0.56-0.84-1.09
				c0.07-0.53,0.56-0.9,1.09-0.84S42.94,14.96,42.87,15.49z M27.08,40.28l-0.27-0.04l-0.21,1.28l0.27,0.04
				c0.22,0.04,0.35-0.06,0.39-0.29l0.1-0.6C27.39,40.44,27.3,40.31,27.08,40.28z M24.22,41.72c0.01-0.75,0.03-1.34,0.08-1.77
				c-0.12,0.48-0.29,1.05-0.51,1.7L24.22,41.72z M23.79,41.65l0.43,0.07c0.01-0.75,0.03-1.34,0.08-1.77
				C24.18,40.43,24.01,40.99,23.79,41.65z M27.08,40.28l-0.27-0.04l-0.21,1.28l0.27,0.04c0.22,0.04,0.35-0.06,0.39-0.29l0.1-0.6
				C27.39,40.44,27.3,40.31,27.08,40.28z M27.08,40.28l-0.27-0.04l-0.21,1.28l0.27,0.04c0.22,0.04,0.35-0.06,0.39-0.29l0.1-0.6
				C27.39,40.44,27.3,40.31,27.08,40.28z M23.79,41.65l0.43,0.07c0.01-0.75,0.03-1.34,0.08-1.77
				C24.18,40.43,24.01,40.99,23.79,41.65z M23.79,41.65l0.43,0.07c0.01-0.75,0.03-1.34,0.08-1.77
				C24.18,40.43,24.01,40.99,23.79,41.65z M23.79,41.65l0.43,0.07c0.01-0.75,0.03-1.34,0.08-1.77
				C24.18,40.43,24.01,40.99,23.79,41.65z M21.01,48.23c-1.81-0.3-3.56,1.15-3.91,3.24v0.01l2.1,0.27c0.15-0.73,0.77-1.22,1.41-1.11
				c0.61,0.1,1.03,0.72,0.98,1.42l2.09,0.27C23.91,50.34,22.75,48.53,21.01,48.23z M37.66,50.22c-1.81-0.3-3.56,1.15-3.91,3.24
				c-0.01,0.06-0.02,0.12-0.03,0.19v0l2.1,0.27c0-0.04,0-0.08,0.01-0.11c0.13-0.76,0.77-1.29,1.42-1.18
				c0.66,0.11,1.09,0.82,0.96,1.58c0,0.01,0,0.02,0,0.02l2.09,0.27C40.64,52.43,39.46,50.52,37.66,50.22z"/>
		</g>
		<path class="st10" d="M21.01,48.23c-1.81-0.3-3.56,1.15-3.91,3.24v0.01c-0.35,2.09,0.83,4.03,2.64,4.33
			c1.81,0.3,3.56-1.15,3.91-3.24c0.01-0.08,0.02-0.15,0.03-0.23C23.91,50.34,22.75,48.53,21.01,48.23z M21.56,52.23
			c-0.13,0.76-0.77,1.29-1.42,1.18c-0.66-0.11-1.09-0.82-0.96-1.58c0-0.02,0.01-0.05,0.02-0.07c0.15-0.73,0.77-1.22,1.41-1.11
			c0.61,0.1,1.03,0.72,0.98,1.42C21.58,52.12,21.57,52.17,21.56,52.23z"/>
		<path class="st3" d="M21.01,48.23c-1.81-0.3-3.56,1.15-3.91,3.24v0.01c-0.35,2.09,0.83,4.03,2.64,4.33
			c1.81,0.3,3.56-1.15,3.91-3.24c0.01-0.08,0.02-0.15,0.03-0.23C23.91,50.34,22.75,48.53,21.01,48.23z M21.56,52.23
			c-0.13,0.76-0.77,1.29-1.42,1.18c-0.66-0.11-1.09-0.82-0.96-1.58c0-0.02,0.01-0.05,0.02-0.07c0.15-0.73,0.77-1.22,1.41-1.11
			c0.61,0.1,1.03,0.72,0.98,1.42C21.58,52.12,21.57,52.17,21.56,52.23z"/>
		<path class="st10" d="M37.66,50.22c-1.81-0.3-3.56,1.15-3.91,3.24c-0.01,0.06-0.02,0.12-0.03,0.19v0
			c-0.25,2.02,0.91,3.85,2.67,4.15c1.81,0.3,3.56-1.15,3.91-3.24c0-0.02,0-0.04,0.01-0.05C40.64,52.43,39.46,50.52,37.66,50.22z
			 M36.8,55.39c-0.63-0.11-1.04-0.75-0.97-1.47c0-0.04,0-0.08,0.01-0.11c0.13-0.76,0.77-1.29,1.42-1.18
			c0.66,0.11,1.09,0.82,0.96,1.58c0,0.01,0,0.02,0,0.02C38.08,54.98,37.45,55.5,36.8,55.39z"/>
		<path class="st3" d="M37.66,50.22c-1.81-0.3-3.56,1.15-3.91,3.24c-0.01,0.06-0.02,0.12-0.03,0.19v0
			c-0.25,2.02,0.91,3.85,2.67,4.15c1.81,0.3,3.56-1.15,3.91-3.24c0-0.02,0-0.04,0.01-0.05C40.64,52.43,39.46,50.52,37.66,50.22z
			 M36.8,55.39c-0.63-0.11-1.04-0.75-0.97-1.47c0-0.04,0-0.08,0.01-0.11c0.13-0.76,0.77-1.29,1.42-1.18
			c0.66,0.11,1.09,0.82,0.96,1.58c0,0.01,0,0.02,0,0.02C38.08,54.98,37.45,55.5,36.8,55.39z"/>
	</g>
	<g>
		<path class="st3" d="M55.71,40.28c1.31,0.69,3.39,1.37,5.52,1.37c2.28,0,3.49-0.95,3.49-2.38c0-1.37-1.04-2.15-3.69-3.07
			c-3.66-1.31-6.07-3.33-6.07-6.53c0-3.75,3.17-6.59,8.32-6.59c2.51,0,4.31,0.49,5.61,1.11l-1.11,3.98
			c-0.85-0.42-2.45-1.04-4.57-1.04c-2.15,0-3.2,1.01-3.2,2.12c0,1.4,1.21,2.02,4.08,3.1c3.88,1.44,5.68,3.46,5.68,6.56
			c0,3.69-2.81,6.82-8.85,6.82c-2.51,0-4.99-0.69-6.23-1.37L55.71,40.28z"/>
		<path class="st3" d="M72.88,22.23h4.96v9.14h0.06c0.52-0.72,1.18-1.27,1.96-1.67c0.75-0.39,1.66-0.62,2.58-0.62
			c3.17,0,5.58,2.19,5.58,7.02v9.3h-4.96v-8.78c0-2.09-0.72-3.53-2.58-3.53c-1.31,0-2.12,0.85-2.48,1.76
			c-0.13,0.29-0.16,0.72-0.16,1.08v9.46h-4.96V22.23z"/>
		<path class="st3" d="M95.83,39c0.13,2.06,2.19,3.04,4.5,3.04c1.7,0,3.07-0.23,4.41-0.69l0.65,3.36c-1.63,0.69-3.62,1.01-5.78,1.01
			c-5.42,0-8.52-3.13-8.52-8.13c0-4.05,2.51-8.52,8.06-8.52c5.16,0,7.12,4.01,7.12,7.96c0,0.85-0.1,1.6-0.16,1.96H95.83z
			 M101.67,35.61c0-1.21-0.52-3.23-2.81-3.23c-2.09,0-2.94,1.93-3.07,3.23H101.67z"/>
		<path class="st3" d="M109.25,22.23h4.96v9.11h0.07c0.95-1.37,2.61-2.25,4.83-2.25c3.82,0,6.59,3.17,6.56,8.06
			c0,5.75-3.62,8.62-7.28,8.62c-1.86,0-3.69-0.69-4.8-2.58h-0.07l-0.2,2.22h-4.21c0.07-1.04,0.13-2.97,0.13-4.77V22.23z
			 M114.21,38.61c0,0.33,0.03,0.62,0.1,0.88c0.33,1.31,1.47,2.35,2.91,2.35c2.12,0,3.43-1.63,3.43-4.5c0-2.48-1.11-4.44-3.43-4.44
			c-1.34,0-2.58,1.01-2.91,2.45c-0.07,0.29-0.1,0.59-0.1,0.91V38.61z"/>
		<path class="st3" d="M142.05,41.55c0,1.5,0.07,2.97,0.26,3.85h-4.47l-0.29-1.6h-0.1c-1.04,1.27-2.68,1.96-4.57,1.96
			c-3.23,0-5.16-2.35-5.16-4.9c0-4.14,3.72-6.1,9.37-6.1v-0.2c0-0.88-0.46-2.09-2.9-2.09c-1.63,0-3.36,0.55-4.41,1.21l-0.91-3.2
			c1.11-0.62,3.3-1.44,6.2-1.44c5.32,0,6.98,3.13,6.98,6.92V41.55z M137.25,37.86c-2.61,0-4.63,0.62-4.63,2.51
			c0,1.27,0.85,1.89,1.96,1.89c1.21,0,2.25-0.82,2.58-1.83c0.07-0.26,0.1-0.55,0.1-0.85V37.86z"/>
		<path class="st3" d="M171.36,36.98c-0.1-2.64-0.2-5.84-0.2-9.04h-0.07c-0.72,2.81-1.63,5.94-2.48,8.52l-2.68,8.58h-3.88
			l-2.35-8.49c-0.72-2.61-1.44-5.75-1.99-8.62h-0.07c-0.1,2.97-0.23,6.37-0.36,9.11l-0.42,8.36h-4.6l1.4-22h6.62l2.15,7.34
			c0.72,2.54,1.37,5.29,1.86,7.87h0.13c0.59-2.55,1.34-5.45,2.09-7.9l2.32-7.31h6.53l1.17,22h-4.83L171.36,36.98z"/>
		<path class="st3" d="M193.6,41.55c0,1.5,0.07,2.97,0.26,3.85h-4.47l-0.29-1.6h-0.1c-1.04,1.27-2.68,1.96-4.57,1.96
			c-3.23,0-5.16-2.35-5.16-4.9c0-4.14,3.72-6.1,9.37-6.1v-0.2c0-0.88-0.46-2.09-2.9-2.09c-1.63,0-3.36,0.55-4.41,1.21l-0.91-3.2
			c1.11-0.62,3.3-1.44,6.2-1.44c5.32,0,6.98,3.13,6.98,6.92V41.55z M188.8,37.86c-2.61,0-4.63,0.62-4.63,2.51
			c0,1.27,0.85,1.89,1.96,1.89c1.21,0,2.25-0.82,2.58-1.83c0.07-0.26,0.1-0.55,0.1-0.85V37.86z"/>
		<path class="st3" d="M197.55,34.69c0-2.35-0.03-3.88-0.13-5.25h4.24l0.2,2.94h0.13c0.82-2.35,2.74-3.33,4.31-3.33
			c0.46,0,0.69,0.03,1.04,0.1v4.67c-0.39-0.07-0.78-0.13-1.34-0.13c-1.83,0-3.07,0.98-3.39,2.51c-0.07,0.33-0.1,0.72-0.1,1.11v8.09
			h-4.96V34.69z"/>
		<path class="st3" d="M216.19,25.13v4.31h3.56v3.66h-3.56v5.78c0,1.93,0.49,2.81,1.96,2.81c0.69,0,1.01-0.03,1.47-0.13l0.03,3.75
			c-0.62,0.23-1.83,0.42-3.2,0.42c-1.6,0-2.94-0.55-3.75-1.37c-0.91-0.95-1.37-2.48-1.37-4.73v-6.53h-2.12v-3.66h2.12v-2.97
			L216.19,25.13z"/>
	</g>
</g>
</svg>
